<!-- StreaSatix fait partie de StreamLooxGood -->
<!-- (C)2021 StreamLooxGood, http://ooxgoo.ga/ -->
<svg xmlns:dc="http://purl.org/dc/elements/1.1/" xmlns:cc="http://creativecommons.org/ns#" xmlns:rdf="http://www.w3.org/1999/02/22-rdf-syntax-ns#" xmlns:svg="http://www.w3.org/2000/svg" xmlns="http://www.w3.org/2000/svg" xmlns:sodipodi="http://sodipodi.sourceforge.net/DTD/sodipodi-0.dtd" xmlns:inkscape="http://www.inkscape.org/namespaces/inkscape" width="400" height="116.27432" id="svg3034" sodipodi:version="0.32" inkscape:version="0.46" version="1.0" sodipodi:docname="Logo MSSSQ.svg" inkscape:output_extension="org.inkscape.output.svg.inkscape">
  <defs id="defs3036">
    <inkscape:perspective sodipodi:type="inkscape:persp3d" inkscape:vp_x="0 : 526.18109 : 1" inkscape:vp_y="0 : 1000 : 0" inkscape:vp_z="744.09448 : 526.18109 : 1" inkscape:persp3d-origin="372.04724 : 350.78739 : 1" id="perspective3042"/>
  </defs>
  <sodipodi:namedview id="base" pagecolor="#ffffff" bordercolor="#666666" borderopacity="1.0" inkscape:pageopacity="0.0" inkscape:pageshadow="2" inkscape:zoom="0.98994949" inkscape:cx="375" inkscape:cy="29.383632" inkscape:document-units="px" inkscape:current-layer="layer1" showgrid="false" inkscape:window-width="1280" inkscape:window-height="750" inkscape:window-x="-8" inkscape:window-y="-8"/>
  <metadata id="metadata3039">
    <rdf:RDF>
      <cc:Work rdf:about="">
        <dc:format>image/svg+xml</dc:format>
        <dc:type rdf:resource="http://purl.org/dc/dcmitype/StillImage"/>
      </cc:Work>
    </rdf:RDF>
  </metadata>
  <g inkscape:label="Calque 1" inkscape:groupmode="layer" id="layer1" transform="translate(310.8725,63.31051)">
    <g id="g2846" transform="matrix(3.5274613,0,0,-3.5274613,-151.52649,34.724694)">
      <path d="M 0,0 L 0,7.138 L -0.055,7.138 C -0.308,6.903 -1.246,6.886 -1.644,6.886 L -2.333,6.886 L -2.333,6.827 C -1.537,6.339 -1.646,5.615 -1.646,4.715 L -1.644,1.696 C -1.644,0.186 -3.128,-0.874 -4.323,-0.874 C -5.899,-0.874 -6.553,0.246 -6.553,2.05 L -6.553,7.138 L -6.607,7.138 C -6.861,6.903 -7.804,6.886 -8.202,6.886 L -8.886,6.886 L -8.886,6.827 C -8.089,6.339 -8.198,5.615 -8.198,4.715 L -8.198,1.705 C -8.198,-1.048 -7.003,-2.359 -4.867,-2.359 C -3.6,-2.359 -2.298,-1.909 -1.644,-0.835 L -1.644,-2.137 L 0.687,-2.137 L 0.687,-2.079 C -0.11,-1.627 0,-0.902 0,0" style="fill:#231f20;fill-opacity:1;fill-rule:nonzero;stroke:none" id="path2848"/>
    </g>
    <g id="g2850" transform="matrix(3.5274613,0,0,-3.5274613,-138.76766,21.263902)">
      <path d="M 0,0 C 0.218,1.227 1.123,2.006 2.336,2.006 C 3.641,2.006 4.474,1.363 4.673,0 L 0,0 z M 6.575,-1.137 C 6.648,1.382 4.962,3.282 2.5,3.282 C -0.199,3.282 -2.027,1.325 -2.027,-1.391 C -2.027,-4.129 0.09,-6.213 3.17,-6.213 C 4.023,-6.213 4.891,-6.077 5.67,-5.73 L 6.575,-3.892 L 6.52,-3.892 C 5.687,-4.6 4.639,-4.935 3.551,-4.935 C 1.504,-4.935 -0.037,-3.538 -0.073,-1.137 L 6.575,-1.137" style="fill:#231f20;fill-opacity:1;fill-rule:nonzero;stroke:none" id="path2852"/>
    </g>
    <g id="g2854" transform="matrix(3.5274613,0,0,-3.5274613,-110.50212,-5.0756516)">
      <path d="M 0,0 C 0.434,0 1.32,0.027 1.586,0.291 L 1.64,0.291 L 1.64,-12.07 C 2.127,-12.205 2.631,-12.303 3.135,-12.303 C 5.113,-12.303 6.248,-10.92 6.248,-8.989 C 6.248,-7.098 5.366,-5.636 3.549,-5.636 C 2.974,-5.636 2.523,-5.791 2.037,-6.064 L 3.008,-4.402 C 3.422,-4.244 3.854,-4.186 4.287,-4.186 C 6.339,-4.186 8.083,-5.967 8.083,-8.638 C 8.083,-11.698 6.014,-13.679 2.738,-13.679 C 1.515,-13.679 0.34,-13.463 -0.548,-13.325 L -0.548,-13.266 C 0.052,-12.99 -0.004,-12.344 -0.004,-11.698 L -0.004,-2.713 C -0.004,-1.813 0.105,-0.55 -0.674,-0.06 L -0.674,0 L 0,0" style="fill:#231f20;fill-opacity:1;fill-rule:nonzero;stroke:none" id="path2856"/>
    </g>
    <g id="g2858" transform="matrix(3.5274613,0,0,-3.5274613,-70.641804,21.263902)">
      <path d="M 0,0 C 0.218,1.227 1.123,2.006 2.336,2.006 C 3.641,2.006 4.474,1.363 4.673,0 L 0,0 z M 6.575,-1.137 C 6.648,1.382 4.964,3.282 2.499,3.282 C -0.199,3.282 -2.029,1.325 -2.029,-1.391 C -2.029,-4.129 0.09,-6.213 3.17,-6.213 C 4.021,-6.213 4.891,-6.077 5.669,-5.73 L 6.575,-3.892 L 6.521,-3.892 C 5.688,-4.6 4.637,-4.935 3.55,-4.935 C 1.502,-4.935 -0.037,-3.538 -0.073,-1.137 L 6.575,-1.137" style="fill:#231f20;fill-opacity:1;fill-rule:nonzero;stroke:none" id="path2860"/>
    </g>
    <g id="g2862" transform="matrix(3.5274613,0,0,-3.5274613,-18.869255,17.58476)">
      <path d="M 0,0 L -0.054,0 C -0.579,0.65 -1.449,0.963 -2.264,0.963 C -4.02,0.963 -5.288,-0.371 -5.288,-2.235 C -5.288,-4.489 -3.531,-5.978 -1.521,-5.978 C -0.597,-5.978 0.417,-5.586 1.124,-5.017 L 1.179,-5.017 L 0.238,-6.87 C -0.525,-7.178 -1.358,-7.256 -2.156,-7.256 C -4.945,-7.256 -7.125,-5.293 -7.125,-2.744 C -7.125,0.628 -4.69,2.239 -1.956,2.239 C -1.303,2.239 -0.633,2.162 0,2.008 L 0,0" style="fill:#231f20;fill-opacity:1;fill-rule:nonzero;stroke:none" id="path2864"/>
    </g>
    <g id="g2866" transform="matrix(3.5274613,0,0,-3.5274613,-123.54314,3.982869)">
      <path d="M 0,0 C 0,0.913 0,1.962 0,1.962 C -1.187,1.43 -2.289,0.435 -3.025,-0.532 L -3.025,-1.297 C -1.263,-0.109 0,-0.053 0,0" style="fill:#231f20;fill-opacity:1;fill-rule:evenodd;stroke:none" id="path2868"/>
    </g>
    <g id="g2870" transform="matrix(3.5274613,0,0,-3.5274613,-209.16521,38.421474)">
      <path d="M 0,0 C -2.736,0 -4.638,3.084 -4.638,5.706 C -4.638,5.734 -4.638,5.976 -4.638,6.002 C -4.604,8.541 -2.959,10.923 -0.09,10.923 C 2.929,10.923 4.486,8.069 4.511,5.362 C 4.511,5.339 4.511,5.102 4.511,5.079 C 4.511,2.194 2.719,0 0,0 z M 9.376,-3.001 C 7.357,-3.33 5.415,-2.695 3.352,-0.335 C 5.345,0.666 6.576,3.158 6.576,5.473 C 6.576,5.496 6.576,5.735 6.576,5.76 C 6.54,9.72 3.566,12.336 0.018,12.336 C -3.536,12.336 -6.676,9.614 -6.703,5.622 C -6.703,5.603 -6.703,5.37 -6.703,5.354 C -6.703,1.469 -3.823,-1.413 -0.29,-1.413 C 0.218,-1.413 0.707,-1.334 1.195,-1.217 C 3.51,-3.384 5.572,-4.308 7.354,-4.092 C 8.199,-3.99 9.092,-3.655 9.629,-2.959 L 9.376,-3.001" style="fill:#231f20;fill-opacity:1;fill-rule:nonzero;stroke:none" id="path2872"/>
    </g>
    
    
    
    
    
    <g xmlns="http://www.w3.org/2000/svg" id="g2894" transform="matrix(3.5274613,0,0,-3.5274613,-231.62364,-22.272025)">
      <path d="M 0,0 C 0.053,-0.582 0.375,-0.851 1.012,-0.851 C 1.433,-0.851 1.9,-0.751 2.353,-0.552 L 2.199,-1.525 C 1.732,-1.671 1.241,-1.747 0.743,-1.747 C -0.498,-1.747 -1.234,-1.019 -1.234,0.1 C -1.234,0.743 -0.958,1.41 -0.529,1.832 C -0.115,2.238 0.483,2.453 1.226,2.453 C 2.322,2.453 2.92,1.832 2.92,0.751 C 2.92,0.529 2.889,0.276 2.828,0 L 0,0 z M 1.793,0.943 C 1.793,1.38 1.525,1.656 1.104,1.656 C 0.682,1.656 0.329,1.326 0.176,0.759 L 1.778,0.759 C 1.786,0.82 1.793,0.881 1.793,0.943" style="fill:#231f20;fill-opacity:1;fill-rule:nonzero;stroke:none" id="path2896"/>
    </g>
    <g xmlns="http://www.w3.org/2000/svg" id="g2898" transform="matrix(3.5274613,0,0,-3.5274613,-168,-30.46279)">
      <path d="M 0,0 L 0.974,0 L 0.774,-0.943 L -0.199,-0.943 L -0.49,-2.315 C -0.529,-2.483 -0.544,-2.598 -0.544,-2.66 C -0.544,-2.943 -0.422,-3.066 -0.115,-3.066 C -0.007,-3.066 0.146,-3.043 0.338,-2.989 L 0.138,-3.932 C -0.176,-3.986 -0.429,-4.016 -0.621,-4.016 C -1.441,-4.016 -1.908,-3.579 -1.908,-2.821 C -1.908,-2.683 -1.893,-2.552 -1.87,-2.43 L -1.556,-0.943 L -2.361,-0.943 L -2.161,0 L -1.357,0 L -1.157,0.935 L 0.284,1.318 L 0,0" style="fill:#231f20;fill-opacity:1;fill-rule:nonzero;stroke:none" id="path2900"/>
    </g>
    <g id="g2902" transform="matrix(3.5274613,0,0,-3.5274613,-258.66255,-31.249414)">
      <path d="M 0,0 C -0.391,0.176 -0.79,0.26 -1.203,0.26 C -1.855,0.26 -2.185,0.061 -2.185,-0.284 C -2.185,-0.659 -1.817,-0.698 -1.257,-0.966 C -0.483,-1.341 -0.115,-1.663 -0.115,-2.376 C -0.115,-3.495 -1.012,-4.284 -2.591,-4.284 C -3.219,-4.284 -3.809,-4.192 -4.369,-3.993 L -4.062,-2.897 C -3.633,-3.112 -3.219,-3.227 -2.805,-3.227 C -2.054,-3.227 -1.633,-2.959 -1.633,-2.56 C -1.633,-2.1 -2.062,-2.016 -2.79,-1.709 C -3.388,-1.456 -3.687,-1.05 -3.687,-0.46 C -3.687,0.536 -2.821,1.272 -1.449,1.272 C -0.69,1.272 -0.084,1.188 0.33,1.035 L 0,0" style="fill:#231f20;fill-opacity:1;fill-rule:nonzero;stroke:none" id="path2904"/>
    </g>
    <g xmlns="http://www.w3.org/2000/svg" id="g2906" transform="matrix(3.5274613,0,0,-3.5274613,-249.36603,-30.46279)">
      <path xmlns="http://www.w3.org/2000/svg" d="M 0,0 L 0.974,0 L 0.774,-0.943 L -0.199,-0.943 L -0.49,-2.315 C -0.529,-2.483 -0.544,-2.598 -0.544,-2.66 C -0.544,-2.943 -0.422,-3.066 -0.115,-3.066 C -0.007,-3.066 0.146,-3.043 0.338,-2.989 L 0.138,-3.932 C -0.176,-3.986 -0.429,-4.016 -0.621,-4.016 C -1.441,-4.016 -1.908,-3.579 -1.908,-2.821 C -1.908,-2.683 -1.893,-2.552 -1.87,-2.43 L -1.556,-0.943 L -2.361,-0.943 L -2.161,0 L -1.357,0 L -1.157,0.935 L 0.284,1.318 L 0,0" style="fill:#231f20;fill-opacity:1;fill-rule:nonzero;stroke:none" id="path2900"/>
    </g>
    <g xmlns="http://www.w3.org/2000/svg" id="g2910" transform="matrix(3.5274613,0,0,-3.5274613,-235.71087,-26.490869)">
      <path d="M 0,0 C -0.245,0.069 -0.444,0.107 -0.597,0.107 C -1.226,0.107 -1.502,-0.284 -1.678,-1.111 L -2.046,-2.813 L -3.426,-2.813 L -2.621,1.142 L -1.372,1.142 L -1.517,0.422 C -1.134,0.973 -0.751,1.234 -0.214,1.234 C -0.046,1.234 0.123,1.203 0.307,1.15 L 0,0" style="fill:#231f20;fill-opacity:1;fill-rule:nonzero;stroke:none" id="path2912"/>
    </g>
    
    
    <g xmlns="http://www.w3.org/2000/svg" id="g2902" transform="matrix(3.5274613,0,0,-3.5274613,-191.66255,-31.249414)">
      <path d="M 0,0 C -0.391,0.176 -0.79,0.26 -1.203,0.26 C -1.855,0.26 -2.185,0.061 -2.185,-0.284 C -2.185,-0.659 -1.817,-0.698 -1.257,-0.966 C -0.483,-1.341 -0.115,-1.663 -0.115,-2.376 C -0.115,-3.495 -1.012,-4.284 -2.591,-4.284 C -3.219,-4.284 -3.809,-4.192 -4.369,-3.993 L -4.062,-2.897 C -3.633,-3.112 -3.219,-3.227 -2.805,-3.227 C -2.054,-3.227 -1.633,-2.959 -1.633,-2.56 C -1.633,-2.1 -2.062,-2.016 -2.79,-1.709 C -3.388,-1.456 -3.687,-1.05 -3.687,-0.46 C -3.687,0.536 -2.821,1.272 -1.449,1.272 C -0.69,1.272 -0.084,1.188 0.33,1.035 L 0,0" style="fill:#231f20;fill-opacity:1;fill-rule:nonzero;stroke:none" id="path2904"/>
    </g>
    <g xmlns="http://www.w3.org/2000/svg" id="g2926" transform="matrix(3.5274613,0,0,-3.5274613,-178.42532,-20)">
      <path xmlns="http://www.w3.org/2000/svg" d="M 0,0 C -0.061,-0.284 -0.13,-0.613 -0.161,-0.996 L -1.303,-0.996 L -1.226,-0.399 C -1.533,-0.851 -2,-1.081 -2.59,-1.081 C -3.403,-1.081 -3.909,-0.605 -3.909,0.092 C -3.909,0.973 -3.096,1.525 -1.587,1.525 C -1.387,1.525 -1.173,1.51 -0.95,1.487 C -0.943,1.533 -0.943,1.579 -0.943,1.617 C -0.943,2.016 -1.203,2.23 -1.702,2.23 C -2.161,2.23 -2.59,2.131 -2.989,1.931 L -2.829,2.851 C -2.399,3.004 -1.97,3.081 -1.518,3.081 C -0.33,3.081 0.314,2.583 0.314,1.824 C 0.314,1.64 0.283,1.395 0.23,1.119 L 0,0 z M -1.502,0.82 C -2.238,0.82 -2.621,0.606 -2.621,0.207 C -2.621,-0.054 -2.422,-0.238 -2.115,-0.238 C -1.64,-0.238 -1.211,0.146 -1.112,0.805 C -1.249,0.82 -1.379,0.82 -1.502,0.82" style="fill:#231f20;fill-opacity:1;fill-rule:nonzero;stroke:none" id="path2952"/>
    </g>
    
    
    
    
    <g xmlns="http://www.w3.org/2000/svg" id="g2946" transform="matrix(3.5274613,0,0,-3.5274613,-159,-30.49101)">
      <path d="M 0,0 L -0.859,-3.947 L -2.2,-3.947 L -1.341,0 L 0,0 z M 0.284,1.372 L 0.146,0.667 L -1.196,0.667 L -1.065,1.372 L 0.284,1.372" style="fill:#231f20;fill-opacity:1;fill-rule:nonzero;stroke:none" id="path2948"/>
    </g>
    <g xmlns="http://www.w3.org/2000/svg" id="g2950" transform="matrix(3.5274613,0,0,-3.5274613,-207.661593,-20.081472)">
      <path d="M 0,0 C -0.061,-0.284 -0.13,-0.613 -0.161,-0.996 L -1.303,-0.996 L -1.226,-0.399 C -1.533,-0.851 -2,-1.081 -2.59,-1.081 C -3.403,-1.081 -3.909,-0.605 -3.909,0.092 C -3.909,0.973 -3.096,1.525 -1.587,1.525 C -1.387,1.525 -1.173,1.51 -0.95,1.487 C -0.943,1.533 -0.943,1.579 -0.943,1.617 C -0.943,2.016 -1.203,2.23 -1.702,2.23 C -2.161,2.23 -2.59,2.131 -2.989,1.931 L -2.829,2.851 C -2.399,3.004 -1.97,3.081 -1.518,3.081 C -0.33,3.081 0.314,2.583 0.314,1.824 C 0.314,1.64 0.283,1.395 0.23,1.119 L 0,0 z M -1.502,0.82 C -2.238,0.82 -2.621,0.606 -2.621,0.207 C -2.621,-0.054 -2.422,-0.238 -2.115,-0.238 C -1.64,-0.238 -1.211,0.146 -1.112,0.805 C -1.249,0.82 -1.379,0.82 -1.502,0.82" style="fill:#231f20;fill-opacity:1;fill-rule:nonzero;stroke:none" id="path2952"/>
    </g>
    
    <g xmlns="http://www.w3.org/2000/svg" id="g2958" transform="matrix(3.5274613,0,0,-3.5274613,-153.136813,-30.46279)">
      <path d="M 0,0 L 0.422,-1.158 L 1.295,0 L 2.866,0 L 1.211,-1.893 L 2.108,-3.94 L 0.652,-3.94 L 0.184,-2.698 L -0.72,-3.94 L -2.36,-3.94 L -0.621,-1.84 L -1.464,0 L 0,0" style="fill:#231f20;fill-opacity:1;fill-rule:nonzero;stroke:none" id="path2960"/>
    </g>
    <path d="M 0.39068389,7.217551 L 39.111626,7.217551 L 39.111626,-16.517325 L 0.39068389,-16.517325 L 0.39068389,7.217551 z" style="fill:#006cb7;fill-opacity:1;fill-rule:nonzero;stroke:none" id="path2962"/>
    <g id="g2964" transform="matrix(3.5274613,0,0,-3.5274613,19.749391,-15.27707)">
      <path d="M 0,0 C -0.079,-0.15 -0.259,-0.36 -0.561,-0.741 C -0.911,-1.177 -0.85,-1.758 -0.683,-2.103 C -0.494,-2.501 -0.383,-2.832 -0.297,-3.146 C -0.176,-3.6 -0.256,-4.208 -0.247,-4.152 L -0.552,-4.152 C -0.552,-3.41 -0.783,-2.712 -1.343,-2.401 C -2.14,-1.961 -2.924,-2.727 -2.676,-3.521 C -2.544,-3.937 -2.308,-4.078 -2.243,-4.078 C -2.243,-4.078 -2.352,-3.619 -2.019,-3.385 C -1.707,-3.164 -1.322,-3.298 -1.143,-3.559 C -0.974,-3.81 -0.947,-4.152 -0.947,-4.152 L -1.52,-4.152 L -1.52,-4.576 L -0.368,-4.576 C -0.368,-4.576 -0.4,-5.173 -1.03,-5.116 C -1.03,-5.116 -0.951,-5.586 -0.368,-5.339 C -0.368,-5.339 -0.4,-5.833 0,-6.08 C 0.4,-5.833 0.37,-5.339 0.37,-5.339 C 0.953,-5.586 1.031,-5.116 1.031,-5.116 C 0.4,-5.173 0.37,-4.576 0.37,-4.576 L 1.519,-4.576 L 1.519,-4.152 L 0.947,-4.152 C 0.947,-4.152 0.975,-3.81 1.143,-3.559 C 1.322,-3.298 1.709,-3.164 2.021,-3.385 C 2.352,-3.619 2.245,-4.078 2.245,-4.078 C 2.31,-4.078 2.543,-3.937 2.677,-3.521 C 2.926,-2.727 2.14,-1.961 1.343,-2.401 C 0.785,-2.712 0.553,-3.41 0.553,-4.152 L 0.249,-4.152 C 0.256,-4.208 0.177,-3.6 0.298,-3.146 C 0.383,-2.832 0.495,-2.501 0.685,-2.103 C 0.852,-1.758 0.913,-1.177 0.562,-0.741 C 0.261,-0.36 0.081,-0.15 0,0" style="fill:#ffffff;fill-opacity:1;fill-rule:evenodd;stroke:none" id="path2966"/>
    </g>
    <path d="M 50.392448,7.217551 L 89.1275,7.217551 L 89.1275,-16.517325 L 50.392448,-16.517325 L 50.392448,7.217551 z" style="fill:#006cb7;fill-opacity:1;fill-rule:nonzero;stroke:none" id="path2968"/>
    <g id="g2970" transform="matrix(3.5274613,0,0,-3.5274613,69.751155,-15.27707)">
      <path d="M 0,0 C -0.08,-0.15 -0.259,-0.36 -0.561,-0.741 C -0.913,-1.177 -0.851,-1.758 -0.684,-2.103 C -0.493,-2.501 -0.385,-2.832 -0.299,-3.146 C -0.177,-3.6 -0.256,-4.208 -0.247,-4.152 L -0.552,-4.152 C -0.552,-3.41 -0.782,-2.712 -1.343,-2.401 C -2.14,-1.961 -2.924,-2.727 -2.676,-3.521 C -2.543,-3.937 -2.31,-4.078 -2.243,-4.078 C -2.243,-4.078 -2.352,-3.619 -2.019,-3.385 C -1.709,-3.164 -1.323,-3.298 -1.145,-3.559 C -0.974,-3.81 -0.947,-4.152 -0.947,-4.152 L -1.519,-4.152 L -1.519,-4.576 L -0.37,-4.576 C -0.37,-4.576 -0.4,-5.173 -1.03,-5.116 C -1.03,-5.116 -0.953,-5.586 -0.37,-5.339 C -0.37,-5.339 -0.4,-5.833 0,-6.08 C 0.398,-5.833 0.367,-5.339 0.367,-5.339 C 0.952,-5.586 1.03,-5.116 1.03,-5.116 C 0.398,-5.173 0.367,-4.576 0.367,-4.576 L 1.52,-4.576 L 1.52,-4.152 L 0.946,-4.152 C 0.946,-4.152 0.976,-3.81 1.142,-3.559 C 1.323,-3.298 1.708,-3.164 2.021,-3.385 C 2.35,-3.619 2.245,-4.078 2.245,-4.078 C 2.31,-4.078 2.543,-3.937 2.673,-3.521 C 2.922,-2.727 2.136,-1.961 1.342,-2.401 C 0.785,-2.712 0.552,-3.41 0.552,-4.152 L 0.249,-4.152 C 0.257,-4.208 0.176,-3.6 0.299,-3.146 C 0.383,-2.832 0.494,-2.501 0.683,-2.103 C 0.849,-1.758 0.911,-1.177 0.561,-0.741 C 0.261,-0.36 0.079,-0.15 0,0" style="fill:#ffffff;fill-opacity:1;fill-rule:evenodd;stroke:none" id="path2972"/>
    </g>
    <path d="M 0.39068389,42.245242 L 39.111626,42.245242 L 39.111626,18.517068 L 0.39068389,18.517068 L 0.39068389,42.245242 z" style="fill:#006cb7;fill-opacity:1;fill-rule:nonzero;stroke:none" id="path2974"/>
    <g id="g2976" transform="matrix(3.5274613,0,0,-3.5274613,19.749391,19.757676)">
      <path d="M 0,0 C -0.079,-0.148 -0.259,-0.36 -0.561,-0.739 C -0.911,-1.175 -0.85,-1.757 -0.683,-2.103 C -0.494,-2.502 -0.383,-2.83 -0.297,-3.145 C -0.176,-3.598 -0.256,-4.207 -0.247,-4.153 L -0.552,-4.153 C -0.552,-3.411 -0.783,-2.71 -1.343,-2.402 C -2.14,-1.958 -2.924,-2.725 -2.676,-3.519 C -2.544,-3.935 -2.308,-4.076 -2.243,-4.076 C -2.243,-4.076 -2.352,-3.617 -2.019,-3.382 C -1.707,-3.162 -1.322,-3.296 -1.143,-3.557 C -0.974,-3.808 -0.947,-4.153 -0.947,-4.153 L -1.52,-4.153 L -1.52,-4.576 L -0.368,-4.574 C -0.368,-4.574 -0.4,-5.171 -1.03,-5.114 C -1.03,-5.114 -0.951,-5.585 -0.368,-5.337 C -0.368,-5.337 -0.4,-5.832 0,-6.078 C 0.4,-5.832 0.37,-5.337 0.37,-5.337 C 0.953,-5.585 1.031,-5.114 1.031,-5.114 C 0.4,-5.171 0.37,-4.574 0.37,-4.574 L 1.519,-4.576 L 1.519,-4.153 L 0.947,-4.153 C 0.947,-4.153 0.975,-3.808 1.143,-3.557 C 1.322,-3.296 1.709,-3.162 2.021,-3.382 C 2.352,-3.617 2.245,-4.076 2.245,-4.076 C 2.31,-4.076 2.543,-3.935 2.677,-3.519 C 2.926,-2.725 2.14,-1.958 1.343,-2.402 C 0.785,-2.71 0.553,-3.411 0.553,-4.153 L 0.249,-4.153 C 0.256,-4.207 0.177,-3.598 0.298,-3.145 C 0.383,-2.83 0.495,-2.502 0.685,-2.103 C 0.852,-1.757 0.913,-1.175 0.562,-0.739 C 0.261,-0.36 0.081,-0.148 0,0" style="fill:#ffffff;fill-opacity:1;fill-rule:evenodd;stroke:none" id="path2978"/>
    </g>
    <path d="M 50.392448,42.245242 L 89.1275,42.245242 L 89.1275,18.517068 L 50.392448,18.517068 L 50.392448,42.245242 z" style="fill:#006cb7;fill-opacity:1;fill-rule:nonzero;stroke:none" id="path2980"/>
    <g id="g2982" transform="matrix(3.5274613,0,0,-3.5274613,69.751155,19.757676)">
      <path d="M 0,0 C -0.08,-0.148 -0.259,-0.36 -0.561,-0.739 C -0.913,-1.175 -0.851,-1.757 -0.684,-2.103 C -0.493,-2.502 -0.385,-2.83 -0.299,-3.145 C -0.177,-3.598 -0.256,-4.207 -0.247,-4.153 L -0.552,-4.153 C -0.552,-3.411 -0.782,-2.71 -1.343,-2.402 C -2.14,-1.958 -2.924,-2.725 -2.676,-3.519 C -2.543,-3.935 -2.31,-4.076 -2.243,-4.076 C -2.243,-4.076 -2.352,-3.617 -2.019,-3.382 C -1.709,-3.162 -1.323,-3.296 -1.145,-3.557 C -0.974,-3.808 -0.947,-4.153 -0.947,-4.153 L -1.519,-4.153 L -1.519,-4.576 L -0.37,-4.574 C -0.37,-4.574 -0.4,-5.171 -1.03,-5.114 C -1.03,-5.114 -0.953,-5.585 -0.37,-5.337 C -0.37,-5.337 -0.4,-5.832 0,-6.078 C 0.398,-5.832 0.367,-5.337 0.367,-5.337 C 0.952,-5.585 1.03,-5.114 1.03,-5.114 C 0.398,-5.171 0.367,-4.574 0.367,-4.574 L 1.52,-4.576 L 1.52,-4.153 L 0.946,-4.153 C 0.946,-4.153 0.976,-3.808 1.142,-3.557 C 1.323,-3.296 1.708,-3.162 2.021,-3.382 C 2.35,-3.617 2.245,-4.076 2.245,-4.076 C 2.31,-4.076 2.543,-3.935 2.673,-3.519 C 2.922,-2.725 2.136,-1.958 1.342,-2.402 C 0.785,-2.71 0.552,-3.411 0.552,-4.153 L 0.249,-4.153 C 0.257,-4.207 0.176,-3.598 0.299,-3.145 C 0.383,-2.83 0.494,-2.502 0.683,-2.103 C 0.849,-1.757 0.911,-1.175 0.561,-0.739 C 0.261,-0.36 0.079,-0.148 0,0" style="fill:#ffffff;fill-opacity:1;fill-rule:evenodd;stroke:none" id="path2984"/>
    </g>
  </g>
</svg>